<mxfile host="app.diagrams.net" modified="2023-01-18T15:56:01.752Z" agent="5.0 (Macintosh; Intel Mac OS X 10_15_7) AppleWebKit/605.1.15 (KHTML, like Gecko) Version/16.2 Safari/605.1.15" version="20.8.5" etag="RQtnpYFGV_SEjx-dRY4t" type="github">
  <diagram id="TYC3N0X3ICj8l77z3C8v" name="第 1 页">
    <mxGraphModel dx="742" dy="598" grid="1" gridSize="10" guides="1" tooltips="1" connect="1" arrows="1" fold="1" page="1" pageScale="1" pageWidth="827" pageHeight="1169" math="0" shadow="0">
      <root>
        <mxCell id="0" />
        <mxCell id="1" parent="0" />
        <mxCell id="eTKVM7R9Wg3a-movLxvP-1" value="" style="rounded=0;whiteSpace=wrap;html=1;" vertex="1" parent="1">
          <mxGeometry x="50" y="190" width="480" height="30" as="geometry" />
        </mxCell>
        <mxCell id="eTKVM7R9Wg3a-movLxvP-2" value="" style="triangle;whiteSpace=wrap;html=1;" vertex="1" parent="1">
          <mxGeometry x="530" y="170" width="70" height="60" as="geometry" />
        </mxCell>
        <mxCell id="eTKVM7R9Wg3a-movLxvP-3" value="" style="ellipse;whiteSpace=wrap;html=1;aspect=fixed;" vertex="1" parent="1">
          <mxGeometry x="50" y="170" width="50" height="50" as="geometry" />
        </mxCell>
        <mxCell id="eTKVM7R9Wg3a-movLxvP-4" value="" style="ellipse;whiteSpace=wrap;html=1;aspect=fixed;" vertex="1" parent="1">
          <mxGeometry x="160" y="170" width="50" height="50" as="geometry" />
        </mxCell>
        <mxCell id="eTKVM7R9Wg3a-movLxvP-5" value="" style="ellipse;whiteSpace=wrap;html=1;aspect=fixed;" vertex="1" parent="1">
          <mxGeometry x="265" y="170" width="50" height="50" as="geometry" />
        </mxCell>
        <mxCell id="eTKVM7R9Wg3a-movLxvP-6" value="" style="ellipse;whiteSpace=wrap;html=1;aspect=fixed;" vertex="1" parent="1">
          <mxGeometry x="370" y="170" width="50" height="50" as="geometry" />
        </mxCell>
        <mxCell id="eTKVM7R9Wg3a-movLxvP-7" value="" style="ellipse;whiteSpace=wrap;html=1;aspect=fixed;" vertex="1" parent="1">
          <mxGeometry x="470" y="170" width="50" height="50" as="geometry" />
        </mxCell>
        <mxCell id="eTKVM7R9Wg3a-movLxvP-10" value="" style="endArrow=classic;html=1;rounded=0;" edge="1" parent="1" source="eTKVM7R9Wg3a-movLxvP-3">
          <mxGeometry width="50" height="50" relative="1" as="geometry">
            <mxPoint x="75" y="270" as="sourcePoint" />
            <mxPoint x="75" y="290.71067811865476" as="targetPoint" />
          </mxGeometry>
        </mxCell>
        <mxCell id="eTKVM7R9Wg3a-movLxvP-11" value="" style="endArrow=classic;html=1;rounded=0;" edge="1" parent="1" source="eTKVM7R9Wg3a-movLxvP-4">
          <mxGeometry width="50" height="50" relative="1" as="geometry">
            <mxPoint x="185" y="270" as="sourcePoint" />
            <mxPoint x="185" y="290.71067811865476" as="targetPoint" />
          </mxGeometry>
        </mxCell>
        <mxCell id="eTKVM7R9Wg3a-movLxvP-12" value="" style="endArrow=classic;html=1;rounded=0;" edge="1" parent="1" source="eTKVM7R9Wg3a-movLxvP-5">
          <mxGeometry width="50" height="50" relative="1" as="geometry">
            <mxPoint x="290" y="270" as="sourcePoint" />
            <mxPoint x="290" y="290.71067811865476" as="targetPoint" />
          </mxGeometry>
        </mxCell>
        <mxCell id="eTKVM7R9Wg3a-movLxvP-13" value="" style="endArrow=classic;html=1;rounded=0;" edge="1" parent="1" source="eTKVM7R9Wg3a-movLxvP-6">
          <mxGeometry width="50" height="50" relative="1" as="geometry">
            <mxPoint x="395" y="270" as="sourcePoint" />
            <mxPoint x="395" y="290.71067811865476" as="targetPoint" />
          </mxGeometry>
        </mxCell>
        <mxCell id="eTKVM7R9Wg3a-movLxvP-14" value="" style="endArrow=classic;html=1;rounded=0;" edge="1" parent="1" source="eTKVM7R9Wg3a-movLxvP-7">
          <mxGeometry width="50" height="50" relative="1" as="geometry">
            <mxPoint x="495" y="270" as="sourcePoint" />
            <mxPoint x="495" y="290.71067811865476" as="targetPoint" />
          </mxGeometry>
        </mxCell>
        <mxCell id="eTKVM7R9Wg3a-movLxvP-15" value="Project start 1/9" style="text;html=1;strokeColor=none;fillColor=none;align=center;verticalAlign=middle;whiteSpace=wrap;rounded=0;" vertex="1" parent="1">
          <mxGeometry x="45" y="290" width="60" height="30" as="geometry" />
        </mxCell>
        <mxCell id="eTKVM7R9Wg3a-movLxvP-16" value="Initial design completed &amp;nbsp;1/23" style="text;html=1;strokeColor=none;fillColor=none;align=center;verticalAlign=middle;whiteSpace=wrap;rounded=0;" vertex="1" parent="1">
          <mxGeometry x="155" y="290" width="60" height="30" as="geometry" />
        </mxCell>
        <mxCell id="eTKVM7R9Wg3a-movLxvP-18" value="Text" style="text;html=1;strokeColor=none;fillColor=none;align=center;verticalAlign=middle;whiteSpace=wrap;rounded=0;" vertex="1" parent="1">
          <mxGeometry x="365" y="290" width="60" height="30" as="geometry" />
        </mxCell>
        <mxCell id="eTKVM7R9Wg3a-movLxvP-19" value="Text" style="text;html=1;strokeColor=none;fillColor=none;align=center;verticalAlign=middle;whiteSpace=wrap;rounded=0;" vertex="1" parent="1">
          <mxGeometry x="465" y="290" width="60" height="30" as="geometry" />
        </mxCell>
        <mxCell id="eTKVM7R9Wg3a-movLxvP-20" value="Prototype 1 end Feb 6" style="text;html=1;strokeColor=none;fillColor=none;align=center;verticalAlign=middle;whiteSpace=wrap;rounded=0;" vertex="1" parent="1">
          <mxGeometry x="260" y="290" width="60" height="30" as="geometry" />
        </mxCell>
      </root>
    </mxGraphModel>
  </diagram>
</mxfile>
